STARTFONT 2.1
COMMENT CDDL HEADER START
COMMENT
COMMENT The contents of this file are subject to the terms of the
COMMENT Common Development and Distribution License (the "License").
COMMENT You may not use this file except in compliance with the License.
COMMENT
COMMENT You can obtain a copy of the license at src/OPENSOLARIS.LICENSE
COMMENT or http://www.opensolaris.org/os/licensing.
COMMENT See the License for the specific language governing permissions
COMMENT and limitations under the License.
COMMENT
COMMENT When distributing Covered Code, include this CDDL HEADER in each
COMMENT file and include the License file at src/OPENSOLARIS.LICENSE.
COMMENT If applicable, add the following below this CDDL HEADER, with the
COMMENT fields enclosed by brackets "[]" replaced with your own identifying
COMMENT information: Portions Copyright [yyyy] [name of copyright owner]
COMMENT
COMMENT CDDL HEADER END
COMMENT
COMMENT Copyright (c) 1998-2001 by Sun Microsystems, Inc.
COMMENT All rights reserved.
COMMENT
COMMENT "@(#)splmt24.bdf	1.10 01/08/15 SMI"
COMMENT 
FONT -sun-supplement-medium-r-normal--24-240-75-75-p-240-unicode-fontspecific
SIZE 24 72 72
FONTBOUNDINGBOX 24 24 0 -4
STARTPROPERTIES 19
FONTNAME_REGISTRY ""
FOUNDRY "sun"
FAMILY_NAME "supplement"
WEIGHT_NAME "medium"
SLANT "R"
SETWIDTH_NAME "normal"
ADD_STYLE_NAME ""
PIXEL_SIZE 24
POINT_SIZE 240
RESOLUTION_X 75
RESOLUTION_Y 75
SPACING "P"
AVERAGE_WIDTH 240
CHARSET_REGISTRY "unicode"
CHARSET_ENCODING "fontspecific"
DEFAULT_CHAR 0
FONT_DESCENT 4
FONT_ASCENT 22
COPYRIGHT "Copyright (c) 1998-2001 by Sun Microsystems, Inc."
ENDPROPERTIES
CHARS 24
STARTCHAR notdefined
ENCODING 0
SWIDTH 500 0
DWIDTH 12 0
BBX 12 24 0 -4
BITMAP
000000
000000
924000
249000
492000
924000
249000
492000
924000
249000
492000
924000
249000
492000
924000
249000
492000
924000
249000
492000
000000
000000
000000
000000
ENDCHAR
STARTCHAR no_half
ENCODING 1
SWIDTH 500 0
DWIDTH 12 0
BBX 12 24 0 -4
BITMAP
000000
000000
000000
fff000
c03000
a05000
a09000
911000
911000
8a1000
841000
841000
8a1000
911000
911000
a09000
a05000
c05000
c03000
fff000
000000
000000
000000
000000
ENDCHAR
STARTCHAR no_full
ENCODING 2
SWIDTH 1000 0
DWIDTH 24 0
BBX 24 24 0 -4
BITMAP
000000
000000
000000
3ffffc
30000c
2c0034
220044
210084
20c304
202404
201804
201804
202404
20c304
210084
220044
240024
280014
30000c
3ffffc
000000
000000
000000
000000
ENDCHAR
STARTCHAR euro_20ac
ENCODING 3
SWIDTH 500 0
DWIDTH 12 0
BBX 12 24 0 -4
BITMAP
000000
000000
000000
000000
078000
1c6000
302000
201000
600000
ffc000
ff8000
400000
400000
ff8000
ff0000
400000
601000
303000
1fe000
0fc000
000000
000000
000000
000000
ENDCHAR
STARTCHAR replcmnt_fffd
ENCODING 4
SWIDTH 500 0
DWIDTH 12 0
BBX 12 24 0 -4
BITMAP
000000
000000
000000
060000
0f0000
1f8000
1f8000
30c000
666000
6f6000
ff7000
fe7000
fcf000
79e000
79e000
3fc000
198000
198000
0f0000
060000
000000
000000
000000
000000
ENDCHAR
STARTCHAR OE_0152
ENCODING 5
SWIDTH 500 0
DWIDTH 12 0
BBX 12 24 0 -4
BITMAP
000000
000000
000000
3bf000
7e0000
c60000
860000
860000
860000
860000
87e000
860000
860000
860000
860000
860000
860000
c60000
6e0000
3bf000
000000
000000
000000
000000
ENDCHAR
STARTCHAR oe_0153
ENCODING 6
SWIDTH 500 0
DWIDTH 12 0
BBX 12 24 0 -4
BITMAP
000000
000000
000000
000000
000000
000000
000000
31c000
5b6000
ce1000
8c1000
841000
841000
87f000
840000
840000
840000
c61000
4f3000
71e000
000000
000000
000000
000000
ENDCHAR
STARTCHAR Yumlaut_0178
ENCODING 7
SWIDTH 500 0
DWIDTH 12 0
BBX 12 24 0 -4
BITMAP
000000
000000
198000
198000
000000
e03000
606000
30c000
108000
198000
090000
0f0000
060000
060000
060000
060000
060000
060000
060000
060000
000000
000000
000000
000000
ENDCHAR
STARTCHAR Ccircumflex_0108
ENCODING 8
SWIDTH 500 0
DWIDTH 12 0
BBX 12 24 0 -4
BITMAP
000000
000000
070000
0d8000
18c000
000000
07e000
182000
300000
300000
600000
600000
600000
600000
600000
700000
300000
3c2000
1fe000
07c000
000000
000000
000000
000000
ENDCHAR
STARTCHAR ccircumflex_0109
ENCODING 9
SWIDTH 500 0
DWIDTH 12 0
BBX 12 24 0 -4
BITMAP
000000
000000
000000
000000
000000
038000
06c000
0c6000
000000
07e000
1c2000
180000
300000
300000
300000
300000
300000
180000
1c2000
07e000
000000
000000
000000
000000
ENDCHAR
STARTCHAR Cdotabove_010a
ENCODING 10
SWIDTH 500 0
DWIDTH 12 0
BBX 12 24 0 -4
BITMAP
000000
000000
030000
030000
000000
000000
07e000
182000
300000
300000
600000
600000
600000
600000
600000
700000
300000
3c2000
1fe000
07c000
000000
000000
000000
000000
ENDCHAR
STARTCHAR cdotabove_010b
ENCODING 11
SWIDTH 500 0
DWIDTH 12 0
BBX 12 24 0 -4
BITMAP
000000
000000
000000
000000
000000
030000
030000
000000
000000
07e000
1c2000
180000
300000
300000
300000
300000
300000
180000
1c2000
07e000
000000
000000
000000
000000
ENDCHAR
STARTCHAR Gcircumflex_011c
ENCODING 12
SWIDTH 500 0
DWIDTH 12 0
BBX 12 24 0 -4
BITMAP
000000
000000
070000
0d8000
18c000
000000
07e000
182000
300000
300000
600000
600000
600000
606000
606000
706000
306000
3c6000
1fe000
07c000
000000
000000
000000
000000
ENDCHAR
STARTCHAR gcircumflex_011d
ENCODING 13
SWIDTH 500 0
DWIDTH 12 0
BBX 12 24 0 -4
BITMAP
000000
000000
000000
000000
000000
0e0000
1b0000
318000
000000
1ec000
31c000
20c000
60c000
60c000
60c000
60c000
60c000
71c000
3fc000
1cc000
00c000
008000
218000
3f0000
ENDCHAR
STARTCHAR Gdotabove_0120
ENCODING 14
SWIDTH 500 0
DWIDTH 12 0
BBX 12 24 0 -4
BITMAP
000000
000000
030000
030000
000000
000000
07e000
182000
300000
300000
600000
600000
600000
606000
606000
706000
306000
3c6000
1fe000
07c000
000000
000000
000000
000000
ENDCHAR
STARTCHAR gdotabove_0121
ENCODING 15
SWIDTH 500 0
DWIDTH 12 0
BBX 12 24 0 -4
BITMAP
000000
000000
000000
000000
000000
0c0000
0c0000
000000
000000
1ec000
31c000
20c000
60c000
60c000
60c000
60c000
60c000
71c000
3fc000
1cc000
00c000
008000
218000
3f0000
ENDCHAR
STARTCHAR Hcircumflex_0124
ENCODING 16
SWIDTH 500 0
DWIDTH 12 0
BBX 12 24 0 -4
BITMAP
000000
000000
070000
0d8000
18c000
000000
306000
306000
306000
306000
306000
306000
3fe000
306000
306000
306000
306000
306000
306000
306000
000000
000000
000000
000000
ENDCHAR
STARTCHAR hcircumflex_0125
ENCODING 17
SWIDTH 500 0
DWIDTH 12 0
BBX 12 24 0 -4
BITMAP
000000
000000
070000
0d8000
18c000
000000
300000
300000
300000
33c000
37e000
3c6000
306000
306000
306000
306000
306000
306000
306000
306000
000000
000000
000000
000000
ENDCHAR
STARTCHAR Jcircumflex_0134
ENCODING 18
SWIDTH 500 0
DWIDTH 12 0
BBX 12 24 0 -4
BITMAP
000000
000000
070000
0d8000
18c000
000000
1f8000
018000
018000
018000
018000
018000
018000
018000
018000
018000
018000
018000
230000
3e0000
000000
000000
000000
000000
ENDCHAR
STARTCHAR jcircumflex_0135
ENCODING 19
SWIDTH 500 0
DWIDTH 12 0
BBX 12 24 0 -4
BITMAP
000000
000000
000000
000000
000000
038000
06c000
0c6000
000000
1f8000
018000
018000
018000
018000
018000
018000
018000
018000
018000
018000
018000
018000
230000
3e0000
ENDCHAR
STARTCHAR Scircumflex_015c
ENCODING 20
SWIDTH 500 0
DWIDTH 12 0
BBX 12 24 0 -4
BITMAP
000000
000000
070000
0d8000
18c000
000000
0fc000
184000
300000
300000
380000
1c0000
0f0000
03c000
00e000
006000
006000
006000
30c000
3f8000
000000
000000
000000
000000
ENDCHAR
STARTCHAR scircumflex_015d
ENCODING 21
SWIDTH 500 0
DWIDTH 12 0
BBX 12 24 0 -4
BITMAP
000000
000000
000000
000000
000000
070000
0d8000
18c000
000000
0fc000
304000
300000
380000
3e0000
0fc000
01e000
006000
006000
20c000
3f8000
000000
000000
000000
000000
ENDCHAR
STARTCHAR Ubreve_016c
ENCODING 22
SWIDTH 500 0
DWIDTH 12 0
BBX 12 24 0 -4
BITMAP
000000
000000
070000
0d8000
18c000
000000
306000
306000
306000
306000
306000
306000
306000
306000
306000
306000
306000
306000
18c000
0f8000
000000
000000
000000
000000
ENDCHAR
STARTCHAR ubreve_016d
ENCODING 23
SWIDTH 500 0
DWIDTH 12 0
BBX 12 24 0 -4
BITMAP
000000
000000
000000
000000
000000
0e0000
1b0000
318000
000000
60c000
60c000
60c000
60c000
60c000
60c000
60c000
60c000
63c000
7ec000
3cc000
000000
000000
000000
000000
ENDCHAR
ENDFONT
